# This file uses centimeters as units for non-parametric coordinates.

v -1.945238 -0.000000 1.945238
v -0.666667 0.000000 2.000000
v 0.666667 0.000000 2.000000
v 1.945238 -0.000000 1.945238
v -2.000000 0.000000 0.666667
v 2.000000 0.000000 0.666667
v -2.000000 0.000000 -0.666667
v 2.000000 0.000000 -0.666667
v -1.945238 -0.000000 -1.945238
v -0.666667 0.000000 -2.000000
v 0.666667 0.000000 -2.000000
v 1.945238 -0.000000 -1.945238
v -1.762839 0.040118 1.762839
v -0.639385 0.059723 1.918155
v -0.851358 0.139726 0.851358
v -1.918155 0.059723 0.639385
v 0.639385 0.059723 1.918155
v 0.851358 0.139726 0.851358
v 1.762839 0.040118 1.762839
v 1.918155 0.059723 0.639385
v -0.851358 0.139726 -0.851358
v -1.918155 0.059723 -0.639385
v 0.851358 0.139726 -0.851358
v 1.918155 0.059723 -0.639385
v -0.639385 0.059723 -1.918155
v -1.762839 0.040118 -1.762839
v 0.639385 0.059723 -1.918155
v 1.762839 0.040118 -1.762839
vt 0.059290 0.059290
vt 0.340154 0.020461
vt 0.287160 0.287160
vt 0.020461 0.340154
vt 0.659846 0.020461
vt 0.712840 0.287160
vt 0.940710 0.059290
vt 0.979539 0.340154
vt 0.287160 0.712840
vt 0.020461 0.659846
vt 0.712840 0.712840
vt 0.979539 0.659846
vt 0.340154 0.979539
vt 0.059290 0.940710
vt 0.659846 0.979539
vt 0.940710 0.940710
vt 0.013691 0.013691
vt 0.333333 0.000000
vt 0.000000 0.333333
vt 0.666667 0.000000
vt 0.986310 0.013691
vt 1.000000 0.333333
vt 0.000000 0.666667
vt 1.000000 0.666667
vt 0.333333 1.000000
vt 0.013691 0.986310
vt 0.666667 1.000000
vt 0.986310 0.986310
vn -0.054478 0.997028 0.054478
vn -0.027251 0.997535 0.064658
vn -0.032351 0.998953 0.032351
vn -0.064658 0.997535 0.027251
vn 0.027251 0.997535 0.064658
vn 0.032351 0.998953 0.032351
vn 0.054478 0.997028 0.054478
vn 0.064658 0.997535 0.027251
vn -0.032351 0.998953 -0.032351
vn -0.064658 0.997535 -0.027251
vn 0.032351 0.998953 -0.032351
vn 0.064658 0.997535 -0.027251
vn -0.027251 0.997535 -0.064658
vn -0.054478 0.997028 -0.054478
vn 0.027251 0.997535 -0.064658
vn 0.054478 0.997028 -0.054478
vn -0.036377 0.944038 0.327826
vn -0.018393 0.885754 0.463791
vn -0.018393 0.885754 0.463791
vn -0.036377 0.944038 0.327826
vn -0.463791 0.885754 0.018393
vn -0.327826 0.944038 0.036377
vn -0.327826 0.944038 0.036377
vn -0.463791 0.885754 0.018393
vn 0.018393 0.885754 0.463791
vn 0.018393 0.885754 0.463791
vn 0.036377 0.944038 0.327826
vn 0.036377 0.944038 0.327826
vn 0.327826 0.944038 0.036377
vn 0.463791 0.885754 0.018392
vn 0.463791 0.885754 0.018392
vn 0.327826 0.944038 0.036377
vn -0.463791 0.885754 -0.018393
vn -0.463791 0.885754 -0.018393
vn 0.463791 0.885754 -0.018392
vn 0.463791 0.885754 -0.018392
vn -0.018393 0.885754 -0.463791
vn -0.036377 0.944038 -0.327826
vn -0.036377 0.944038 -0.327826
vn -0.018393 0.885754 -0.463791
vn -0.327826 0.944038 -0.036377
vn -0.327826 0.944038 -0.036377
vn 0.018393 0.885754 -0.463791
vn 0.018393 0.885754 -0.463791
vn 0.327825 0.944038 -0.036376
vn 0.327825 0.944038 -0.036376
vn 0.036377 0.944038 -0.327826
vn 0.036377 0.944038 -0.327826
s 1
f 13/1/1 14/2/2 15/3/3 16/4/4
f 14/2/2 17/5/5 18/6/6 15/3/3
f 17/5/5 19/7/7 20/8/8 18/6/6
f 16/4/4 15/3/3 21/9/9 22/10/10
f 15/3/3 18/6/6 23/11/11 21/9/9
f 18/6/6 20/8/8 24/12/12 23/11/11
f 22/10/10 21/9/9 25/13/13 26/14/14
f 21/9/9 23/11/11 27/15/15 25/13/13
f 23/11/11 24/12/12 28/16/16 27/15/15
s 2
f 1/17/17 2/18/18 14/2/19 13/1/20
s 3
f 5/19/21 1/17/22 13/1/23 16/4/24
s 2
f 2/18/18 3/20/25 17/5/26 14/2/19
f 3/20/25 4/21/27 19/7/28 17/5/26
s 4
f 4/21/29 6/22/30 20/8/31 19/7/32
s 3
f 7/23/33 5/19/21 16/4/24 22/10/34
s 4
f 6/22/30 8/24/35 24/12/36 20/8/31
s 5
f 10/25/37 9/26/38 26/14/39 25/13/40
s 3
f 9/26/41 7/23/33 22/10/34 26/14/42
s 5
f 11/27/43 10/25/37 25/13/40 27/15/44
s 4
f 8/24/35 12/28/45 28/16/46 24/12/36
s 5
f 12/28/47 11/27/43 27/15/44 28/16/48
