# This file uses centimeters as units for non-parametric coordinates.

v 0.315439 -0.072047 -0.970820
v -0.825829 -0.072047 -0.600000
v -0.825829 -0.072047 0.600000
v 0.315439 -0.072047 0.970820
v 1.020781 -0.072047 0.000000
v 0.363136 0.868457 -0.419928
v -0.256714 0.839970 -0.468981
v -0.496409 0.901705 0.103414
v -0.024699 0.968346 0.506227
v 0.506530 0.947798 0.182783
v 0.360703 1.871337 -0.045680
v 0.124490 2.119051 -0.315673
v -0.252975 2.081765 -0.186014
v -0.250047 1.811008 0.164112
v 0.129226 1.680956 0.250844
v 0.000000 2.872047 0.000000
vt 0.577254 0.012236
vt 0.297746 0.103054
vt 0.297746 0.396946
vt 0.577254 0.487764
vt 0.750000 0.250000
vt 0.250000 0.500000
vt 0.350000 0.500000
vt 0.450000 0.500000
vt 0.550000 0.500000
vt 0.650000 0.500000
vt 0.750000 0.500000
vt 0.333333 0.666667
vt 0.400000 0.666667
vt 0.466667 0.666667
vt 0.533333 0.666667
vt 0.600000 0.666667
vt 0.666667 0.666667
vt 0.416667 0.833333
vt 0.450000 0.833333
vt 0.483333 0.833333
vt 0.516667 0.833333
vt 0.550000 0.833333
vt 0.583333 0.833333
vt 0.500000 1.000000
vn 0.395653 0.447754 -0.801857
vn -0.628801 0.468674 -0.620447
vn -0.390233 0.304211 -0.869008
vn 0.683905 0.314564 -0.658274
vn -0.777383 0.472193 0.415583
vn -0.938092 0.326593 0.115417
vn 0.173269 0.454036 0.873973
vn -0.157159 0.363192 0.918364
vn 0.892190 0.438686 0.107480
vn 0.854783 0.346676 0.386215
vn -0.006794 0.285132 -0.958464
vn 0.939645 0.278337 -0.198987
vn -0.592238 0.225788 -0.773481
vn -0.888080 0.219240 0.404040
vn -0.888080 0.219240 0.404040
vn 0.547060 0.255877 0.797027
vn 0.043894 0.229988 0.972203
vn 0.000000 -1.000000 0.000000
vn 0.000000 -1.000000 0.000000
vn 0.000000 -1.000000 0.000000
vn 0.000000 -1.000000 0.000000
vn 0.000000 -1.000000 0.000000
vn 0.627674 0.634228 0.451420
vn -0.945202 0.254400 0.204633
s 1
f 1/6/1 2/7/2 7/13/3 6/12/4
f 2/7/2 3/8/5 8/14/6 7/13/3
f 3/8/5 4/9/7 9/15/8 8/14/6
f 4/9/7 5/10/9 10/16/10 9/15/8
f 5/10/9 1/11/1 6/17/4 10/16/10
f 6/12/4 7/13/3 12/19/11 11/18/12
f 7/13/3 8/14/6 13/20/13 12/19/11
f 8/14/6 9/15/8 14/21/14 13/20/15
f 9/15/8 10/16/10 15/22/16 14/21/17
f 10/16/10 6/17/4 11/23/12 15/22/16
s off
f 1/1/18 5/5/19 4/4/20 3/3/21 2/2/22
s 1
f 11/18/12 12/19/11 16/24/23
f 12/19/11 13/20/13 16/24/23
f 13/20/15 14/21/14 16/24/24
f 14/21/17 15/22/16 16/24/23
f 15/22/16 11/23/12 16/24/23
