# This file uses centimeters as units for non-parametric coordinates.

v 0.000000 0.000000 0.808556
v 0.808556 0.000000 0.808556
v 0.000000 0.577656 0.808556
v 0.808556 0.577656 0.808556
v 0.000000 0.577656 -0.000001
v 0.808556 0.577656 -0.000001
v 0.000000 0.000000 -0.000001
v 0.808556 0.000000 -0.000001
v 0.096827 0.613055 0.711728
v 0.711729 0.613055 0.711728
v 0.711729 0.613055 0.096827
v 0.096827 0.613055 0.096827
v 0.246436 0.745902 0.562119
v 0.562120 0.745902 0.562119
v 0.562120 0.745902 0.246436
v 0.246436 0.745902 0.246436
vt 0.375000 0.000000
vt 0.625000 0.000000
vt 0.375000 0.250000
vt 0.625000 0.250000
vt 0.375000 0.500000
vt 0.625000 0.500000
vt 0.375000 0.750000
vt 0.625000 0.750000
vt 0.375000 1.000000
vt 0.625000 1.000000
vt 0.875000 0.000000
vt 0.875000 0.250000
vt 0.125000 0.000000
vt 0.125000 0.250000
vt 0.375000 0.250000
vt 0.625000 0.250000
vt 0.625000 0.500000
vt 0.375000 0.500000
vt 0.375000 0.250000
vt 0.625000 0.250000
vt 0.625000 0.500000
vt 0.375000 0.500000
vn 0.000000 0.000000 1.000000
vn 0.000000 0.000000 1.000000
vn 0.000000 0.000000 1.000000
vn 0.000000 0.000000 1.000000
vn 0.000000 1.000000 0.000000
vn 0.000000 1.000000 0.000000
vn 0.000000 1.000000 0.000000
vn 0.000000 1.000000 0.000000
vn 0.000000 0.000000 -1.000000
vn 0.000000 0.000000 -1.000000
vn 0.000000 0.000000 -1.000000
vn 0.000000 0.000000 -1.000000
vn 0.000000 -1.000000 0.000000
vn 0.000000 -1.000000 0.000000
vn 0.000000 -1.000000 0.000000
vn 0.000000 -1.000000 0.000000
vn 1.000000 0.000001 0.000000
vn 1.000000 0.000001 0.000000
vn 1.000000 0.000001 0.000000
vn 1.000000 0.000001 0.000000
vn -1.000000 0.000000 0.000000
vn -1.000000 0.000000 0.000000
vn -1.000000 0.000000 0.000000
vn -1.000000 0.000000 0.000000
vn 0.000000 0.939202 0.343365
vn 0.000000 0.939202 0.343365
vn 0.000000 0.939202 0.343365
vn 0.000000 0.939202 0.343365
vn 0.343367 0.939202 0.000000
vn 0.343367 0.939202 0.000000
vn 0.343367 0.939202 0.000000
vn 0.343367 0.939202 0.000000
vn 0.000000 0.939202 -0.343365
vn 0.000000 0.939202 -0.343365
vn 0.000000 0.939202 -0.343365
vn 0.000000 0.939202 -0.343365
vn -0.343366 0.939202 0.000000
vn -0.343366 0.939202 0.000000
vn -0.343366 0.939202 0.000000
vn -0.343366 0.939202 0.000000
vn 0.000000 0.747755 0.663975
vn 0.000000 0.747755 0.663975
vn 0.000000 0.747755 0.663975
vn 0.000000 0.747755 0.663975
vn 0.663974 0.747755 0.000000
vn 0.663974 0.747755 0.000000
vn 0.663974 0.747755 0.000000
vn 0.663974 0.747755 0.000000
vn 0.000000 0.747755 -0.663975
vn 0.000000 0.747755 -0.663975
vn 0.000000 0.747755 -0.663975
vn 0.000000 0.747755 -0.663975
vn -0.663974 0.747755 0.000000
vn -0.663974 0.747755 0.000000
vn -0.663974 0.747755 0.000000
vn -0.663974 0.747755 0.000000
s off
f 1/1/1 2/2/2 4/4/3 3/3/4
f 13/19/5 14/20/6 15/21/7 16/22/8
f 5/5/9 6/6/10 8/8/11 7/7/12
f 7/7/13 8/8/14 2/10/15 1/9/16
f 2/2/17 8/11/18 6/12/19 4/4/20
f 7/13/21 1/1/22 3/3/23 5/14/24
f 3/3/25 4/4/26 10/16/27 9/15/28
f 4/4/29 6/6/30 11/17/31 10/16/32
f 6/6/33 5/5/34 12/18/35 11/17/36
f 5/5/37 3/3/38 9/15/39 12/18/40
f 9/15/41 10/16/42 14/20/43 13/19/44
f 10/16/45 11/17/46 15/21/47 14/20/48
f 11/17/49 12/18/50 16/22/51 15/21/52
f 12/18/53 9/15/54 13/19/55 16/22/56
